{"nbformat":4,"nbformat_minor":0,"metadata":{"colab":{"provenance":[],"mount_file_id":"1XlVC2uSpMo4aqHA9muxGDgdxjjbY60gz","authorship_tag":"ABX9TyPrTZKQ8j55IbgEExc4aplI"},"kernelspec":{"name":"python3","display_name":"Python 3"},"language_info":{"name":"python"}},"cells":[{"cell_type":"code","execution_count":1,"metadata":{"id":"M2-tvnaQPPLX","executionInfo":{"status":"ok","timestamp":1662039311241,"user_tz":-330,"elapsed":599,"user":{"displayName":"20MSC52 SUNDARESAN CG","userId":"13279548266259704776"}}},"outputs":[],"source":["import cv2\n","from google.colab.patches import cv2_imshow\n","import numpy as np\n","import os"]},{"cell_type":"code","source":["!ffmpeg -i \"/content/drive/MyDrive/DL_mydataset/vid_signing.mp4\" -vf fps=20 \"/content/drive/MyDrive/DL_mydataset/img_sign/imgs%04d.png\"\n","!ffmpeg -i \"/content/drive/MyDrive/DL_mydataset/vid_notsigning.mp4\" -vf fps=20 \"/content/drive/MyDrive/DL_mydataset/img_nosign/imgn%04d.png\""],"metadata":{"colab":{"base_uri":"https://localhost:8080/"},"id":"0GBWkODlQNRj","executionInfo":{"status":"ok","timestamp":1661959108808,"user_tz":-330,"elapsed":67212,"user":{"displayName":"20MSC52 SUNDARESAN CG","userId":"13279548266259704776"}},"outputId":"711589d1-3d90-4052-e9ea-bd8f840b3abd"},"execution_count":null,"outputs":[{"output_type":"stream","name":"stdout","text":["ffmpeg version 3.4.11-0ubuntu0.1 Copyright (c) 2000-2022 the FFmpeg developers\n","  built with gcc 7 (Ubuntu 7.5.0-3ubuntu1~18.04)\n","  configuration: --prefix=/usr --extra-version=0ubuntu0.1 --toolchain=hardened --libdir=/usr/lib/x86_64-linux-gnu --incdir=/usr/include/x86_64-linux-gnu --enable-gpl --disable-stripping --enable-avresample --enable-avisynth --enable-gnutls --enable-ladspa --enable-libass --enable-libbluray --enable-libbs2b --enable-libcaca --enable-libcdio --enable-libflite --enable-libfontconfig --enable-libfreetype --enable-libfribidi --enable-libgme --enable-libgsm --enable-libmp3lame --enable-libmysofa --enable-libopenjpeg --enable-libopenmpt --enable-libopus --enable-libpulse --enable-librubberband --enable-librsvg --enable-libshine --enable-libsnappy --enable-libsoxr --enable-libspeex --enable-libssh --enable-libtheora --enable-libtwolame --enable-libvorbis --enable-libvpx --enable-libwavpack --enable-libwebp --enable-libx265 --enable-libxml2 --enable-libxvid --enable-libzmq --enable-libzvbi --enable-omx --enable-openal --enable-opengl --enable-sdl2 --enable-libdc1394 --enable-libdrm --enable-libiec61883 --enable-chromaprint --enable-frei0r --enable-libopencv --enable-libx264 --enable-shared\n","  libavutil      55. 78.100 / 55. 78.100\n","  libavcodec     57.107.100 / 57.107.100\n","  libavformat    57. 83.100 / 57. 83.100\n","  libavdevice    57. 10.100 / 57. 10.100\n","  libavfilter     6.107.100 /  6.107.100\n","  libavresample   3.  7.  0 /  3.  7.  0\n","  libswscale      4.  8.100 /  4.  8.100\n","  libswresample   2.  9.100 /  2.  9.100\n","  libpostproc    54.  7.100 / 54.  7.100\n","Input #0, mov,mp4,m4a,3gp,3g2,mj2, from '/content/drive/MyDrive/DL_mydataset/vid_signing.mp4':\n","  Metadata:\n","    major_brand     : mp42\n","    minor_version   : 0\n","    compatible_brands: mp41isom\n","    creation_time   : 2022-08-31T14:01:28.000000Z\n","  Duration: 00:01:16.17, start: 0.000000, bitrate: 779 kb/s\n","    Stream #0:0(und): Video: h264 (Main) (avc1 / 0x31637661), yuv420p, 640x480 [SAR 1:1 DAR 4:3], 633 kb/s, 30 fps, 30 tbr, 30k tbn, 60 tbc (default)\n","    Metadata:\n","      creation_time   : 2022-08-31T14:23:41.000000Z\n","      handler_name    : VideoHandler\n","      encoder         : AVC Coding\n","    Stream #0:1(und): Audio: aac (LC) (mp4a / 0x6134706D), 48000 Hz, stereo, fltp, 141 kb/s (default)\n","    Metadata:\n","      creation_time   : 2022-08-31T14:23:41.000000Z\n","      handler_name    : SoundHandler\n","Stream mapping:\n","  Stream #0:0 -> #0:0 (h264 (native) -> png (native))\n","Press [q] to stop, [?] for help\n","Output #0, image2, to '/content/drive/MyDrive/DL_mydataset/img_sign/imgs%04d.png':\n","  Metadata:\n","    major_brand     : mp42\n","    minor_version   : 0\n","    compatible_brands: mp41isom\n","    encoder         : Lavf57.83.100\n","    Stream #0:0(und): Video: png, rgb24, 640x480 [SAR 1:1 DAR 4:3], q=2-31, 200 kb/s, 20 fps, 20 tbn, 20 tbc (default)\n","    Metadata:\n","      creation_time   : 2022-08-31T14:23:41.000000Z\n","      handler_name    : VideoHandler\n","      encoder         : Lavc57.107.100 png\n","frame= 1523 fps= 47 q=-0.0 Lsize=N/A time=00:01:16.15 bitrate=N/A speed=2.37x    \n","video:489037kB audio:0kB subtitle:0kB other streams:0kB global headers:0kB muxing overhead: unknown\n","ffmpeg version 3.4.11-0ubuntu0.1 Copyright (c) 2000-2022 the FFmpeg developers\n","  built with gcc 7 (Ubuntu 7.5.0-3ubuntu1~18.04)\n","  configuration: --prefix=/usr --extra-version=0ubuntu0.1 --toolchain=hardened --libdir=/usr/lib/x86_64-linux-gnu --incdir=/usr/include/x86_64-linux-gnu --enable-gpl --disable-stripping --enable-avresample --enable-avisynth --enable-gnutls --enable-ladspa --enable-libass --enable-libbluray --enable-libbs2b --enable-libcaca --enable-libcdio --enable-libflite --enable-libfontconfig --enable-libfreetype --enable-libfribidi --enable-libgme --enable-libgsm --enable-libmp3lame --enable-libmysofa --enable-libopenjpeg --enable-libopenmpt --enable-libopus --enable-libpulse --enable-librubberband --enable-librsvg --enable-libshine --enable-libsnappy --enable-libsoxr --enable-libspeex --enable-libssh --enable-libtheora --enable-libtwolame --enable-libvorbis --enable-libvpx --enable-libwavpack --enable-libwebp --enable-libx265 --enable-libxml2 --enable-libxvid --enable-libzmq --enable-libzvbi --enable-omx --enable-openal --enable-opengl --enable-sdl2 --enable-libdc1394 --enable-libdrm --enable-libiec61883 --enable-chromaprint --enable-frei0r --enable-libopencv --enable-libx264 --enable-shared\n","  libavutil      55. 78.100 / 55. 78.100\n","  libavcodec     57.107.100 / 57.107.100\n","  libavformat    57. 83.100 / 57. 83.100\n","  libavdevice    57. 10.100 / 57. 10.100\n","  libavfilter     6.107.100 /  6.107.100\n","  libavresample   3.  7.  0 /  3.  7.  0\n","  libswscale      4.  8.100 /  4.  8.100\n","  libswresample   2.  9.100 /  2.  9.100\n","  libpostproc    54.  7.100 / 54.  7.100\n","Input #0, mov,mp4,m4a,3gp,3g2,mj2, from '/content/drive/MyDrive/DL_mydataset/vid_notsigning.mp4':\n","  Metadata:\n","    major_brand     : mp42\n","    minor_version   : 0\n","    compatible_brands: mp41isom\n","    creation_time   : 2022-08-31T14:04:18.000000Z\n","  Duration: 00:01:18.10, start: 0.000000, bitrate: 754 kb/s\n","    Stream #0:0(und): Video: h264 (Main) (avc1 / 0x31637661), yuv420p, 640x480 [SAR 1:1 DAR 4:3], 595 kb/s, 30 fps, 30 tbr, 30k tbn, 60 tbc (default)\n","    Metadata:\n","      creation_time   : 2022-08-31T14:18:30.000000Z\n","      handler_name    : VideoHandler\n","      encoder         : AVC Coding\n","    Stream #0:1(und): Audio: aac (LC) (mp4a / 0x6134706D), 48000 Hz, stereo, fltp, 155 kb/s (default)\n","    Metadata:\n","      creation_time   : 2022-08-31T14:18:30.000000Z\n","      handler_name    : SoundHandler\n","Stream mapping:\n","  Stream #0:0 -> #0:0 (h264 (native) -> png (native))\n","Press [q] to stop, [?] for help\n","Output #0, image2, to '/content/drive/MyDrive/DL_mydataset/img_nosign/imgn%04d.png':\n","  Metadata:\n","    major_brand     : mp42\n","    minor_version   : 0\n","    compatible_brands: mp41isom\n","    encoder         : Lavf57.83.100\n","    Stream #0:0(und): Video: png, rgb24, 640x480 [SAR 1:1 DAR 4:3], q=2-31, 200 kb/s, 20 fps, 20 tbn, 20 tbc (default)\n","    Metadata:\n","      creation_time   : 2022-08-31T14:18:30.000000Z\n","      handler_name    : VideoHandler\n","      encoder         : Lavc57.107.100 png\n","frame= 1562 fps= 46 q=-0.0 Lsize=N/A time=00:01:18.10 bitrate=N/A speed= 2.3x    \n","video:513449kB audio:0kB subtitle:0kB other streams:0kB global headers:0kB muxing overhead: unknown\n"]}]},{"cell_type":"code","source":["print(len(os.listdir('/content/drive/MyDrive/DL_mydataset/img_sign')),len(os.listdir('/content/drive/MyDrive/DL_mydataset/img_nosign')))"],"metadata":{"colab":{"base_uri":"https://localhost:8080/"},"id":"YCvSWfp3dGFd","executionInfo":{"status":"ok","timestamp":1662039317017,"user_tz":-330,"elapsed":340,"user":{"displayName":"20MSC52 SUNDARESAN CG","userId":"13279548266259704776"}},"outputId":"c8a7ccc9-a105-4806-c15b-758153db4f77"},"execution_count":2,"outputs":[{"output_type":"stream","name":"stdout","text":["1301 1301\n"]}]},{"cell_type":"code","source":["\n","src1 = r'/content/drive/MyDrive/DL_mydataset/img_sign'\n","des1 = r'/content/drive/MyDrive/DL_mydataset/bw_sign'\n","\n","file1 = os.listdir(src1)\n","\n","for pic in file1:\n","  img = cv2.imread(os.path.join(src1,pic))\n","  gray = cv2.cvtColor(img, cv2.COLOR_BGR2GRAY)\n","  crp = gray[:,60:560]\n","  res = cv2.resize(crp,(256,256))\n","  cv2.imwrite(os.path.join(des1,pic),res)\n"],"metadata":{"id":"iwT4ZSXyxmPm"},"execution_count":null,"outputs":[]},{"cell_type":"code","source":["\n","src2 = r'/content/drive/MyDrive/DL_mydataset/img_nosign'\n","des2 = r'/content/drive/MyDrive/DL_mydataset/bw_nosign'\n","\n","file2 = os.listdir(src2)\n","\n","for pic in file2:\n","  img = cv2.imread(os.path.join(src2,pic))\n","  gray = cv2.cvtColor(img, cv2.COLOR_BGR2GRAY)\n","  crp = gray[:,40:580]\n","  res = cv2.resize(crp,(256,256))\n","  cv2.imwrite(os.path.join(des2,pic),res)\n"],"metadata":{"id":"ELYdULcy7sU5"},"execution_count":null,"outputs":[]},{"cell_type":"code","source":["print(len(os.listdir('/content/drive/MyDrive/DL_mydataset/bw_sign')),len(os.listdir('/content/drive/MyDrive/DL_mydataset/bw_nosign')))"],"metadata":{"colab":{"base_uri":"https://localhost:8080/"},"id":"KegLFQMi8x7o","executionInfo":{"status":"ok","timestamp":1662039327059,"user_tz":-330,"elapsed":343,"user":{"displayName":"20MSC52 SUNDARESAN CG","userId":"13279548266259704776"}},"outputId":"45e25cfe-e7ee-4037-bb5b-0095d647e59d"},"execution_count":3,"outputs":[{"output_type":"stream","name":"stdout","text":["1301 1301\n"]}]},{"cell_type":"code","source":["dir1 = \"/content/drive/MyDrive/DL_mydataset/bw_sign\"\n","dir2 = \"/content/drive/MyDrive/DL_mydataset/bw_nosign\"\n","\n","dest1 = \"/content/drive/MyDrive/DL_mydataset/diff_sign\"\n","dest2 = \"/content/drive/MyDrive/DL_mydataset/diff_nosign\"\n","\n","dir1_list = os.listdir(dir1)\n","dir2_list = os.listdir(dir2)\n","\n","def abs_diff(img1, img2):\n","  absdiff = cv2.absdiff(img1,img2)\n","  return absdiff\n"],"metadata":{"id":"D6vFHKPr9PlG","executionInfo":{"status":"ok","timestamp":1662039334073,"user_tz":-330,"elapsed":330,"user":{"displayName":"20MSC52 SUNDARESAN CG","userId":"13279548266259704776"}}},"execution_count":4,"outputs":[]},{"cell_type":"code","source":["for i in range(0,len(dir1_list)-1):\n","  crnt_img = dir1_list[i]\n","  next_img = dir1_list[i+1]\n","  img1 = cv2.imread(os.path.join(dir1,crnt_img))\n","  img2 = cv2.imread(os.path.join(dir1,next_img))\n","  absdiff = abs_diff(img1,img2)\n","  cv2.imwrite(os.path.join(dest1,crnt_img),absdiff)"],"metadata":{"id":"hjp3IjQZQxl2","executionInfo":{"status":"ok","timestamp":1662040605833,"user_tz":-330,"elapsed":329513,"user":{"displayName":"20MSC52 SUNDARESAN CG","userId":"13279548266259704776"}}},"execution_count":7,"outputs":[]},{"cell_type":"markdown","source":["for i in range(0,len(dir2_list)-1):\n","\n","  crnt_img = dir2_list[i]\n","\n","  next_img = dir2_list[i+1]\n","\n","  img1 = cv2.imread(os.path.join(dir2,crnt_img))\n","\n","  img2 = cv2.imread(os.path.join(dir2,next_img))\n","\n","  absdiff = abs_diff(img1,img2)\n","  \n","  cv2.imwrite(os.path.join(dest2,crnt_img),absdiff)"],"metadata":{"id":"2t2x3rG4T04o"}},{"cell_type":"code","source":["print(len(os.listdir('/content/drive/MyDrive/DL_mydataset/diff_sign')),len(os.listdir('/content/drive/MyDrive/DL_mydataset/diff_nosign')))"],"metadata":{"colab":{"base_uri":"https://localhost:8080/"},"id":"-6JVw82rUPoB","executionInfo":{"status":"ok","timestamp":1662040644951,"user_tz":-330,"elapsed":358,"user":{"displayName":"20MSC52 SUNDARESAN CG","userId":"13279548266259704776"}},"outputId":"5564efdb-5e8e-4cf0-cb05-a5eaf085187d"},"execution_count":8,"outputs":[{"output_type":"stream","name":"stdout","text":["1300 1300\n"]}]}]}